<svg xmlns="http://www.w3.org/2000/svg" viewBox="0 0 19 18" width="19" height="18"><path d="M.42 5l1.24 6.13c.08.41.45.72.87.72h10.94l-.26 1.29H2.61c-.25 0-.45.2-.45.45s.2.45.45.45h10.6c.42 0 .78-.31.87-.72l2.14-10.6 1.94-.86c.23-.1.33-.36.23-.59a.432.432 0 00-.58-.23l-1.94.86c-.27.11-.46.35-.52.64l-.28 1.38H1.29c-.27 0-.52.12-.69.33-.17.21-.23.49-.18.75zm14.47-.18l-1.24 6.12H2.53L1.29 4.82h13.6zM4.92 7.16h6.34c.25 0 .44-.2.44-.45a.44.44 0 00-.44-.45H4.92c-.25 0-.44.2-.44.45s.19.45.44.45zm6 1.44H5.26c-.24 0-.44.2-.44.45s.2.45.44.45h5.66c.24 0 .44-.2.44-.45s-.2-.45-.44-.45zm-.05 6.17c-.87 0-1.58.72-1.59 1.61 0 .89.72 1.62 1.59 1.62.87 0 1.59-.73 1.59-1.62 0-.89-.72-1.61-1.59-1.61zm0 2.33c-.39 0-.7-.32-.7-.72 0-.39.31-.71.7-.71.39 0 .7.32.7.71 0 .4-.31.72-.7.72zm-5.56-2.33c-.88 0-1.59.72-1.59 1.61 0 .89.71 1.62 1.59 1.62.87 0 1.58-.73 1.58-1.62 0-.89-.71-1.61-1.58-1.61zm0 2.33c-.39 0-.7-.32-.7-.72 0-.39.31-.71.7-.71.39 0 .7.32.7.71 0 .4-.31.72-.7.72z" fill="#b4bfc7"/></svg>