<svg xmlns="http://www.w3.org/2000/svg" viewBox="0 0 108 96" width="108" height="96"><defs><clipPath clipPathUnits="userSpaceOnUse" id="cp1"><path d="M0 0h108v96H0z"/></clipPath></defs><style>.shp0{fill:#1d1d1b}.shp1{fill:none;stroke:#1d1d1b;stroke-width:6}</style><g clip-path="url(#cp1)"><path fill-rule="evenodd" class="shp0" d="M0 36.77h108v18.67H0V36.77zm6.07 12.61h95.86v-6.54H6.07v6.54z"/><path class="shp1" d="M99.17.26v10.92"/><path class="shp0" d="M90.19 8.55l8.98 15.54 8.97-15.54H90.19z"/><path class="shp1" d="M9.42.26v10.66"/><path class="shp0" d="M.45 8.3l8.97 15.54L18.4 8.3H.45z"/><path class="shp1" d="M0 53.1c27 0 27 11.34 54 11.34S81 53.1 108 53.1m0 39.9c-27 0-27-11.34-54-11.34S27 93 0 93"/><path fill-rule="evenodd" class="shp0" d="M63.7 42.85H44.42V.26H63.7v42.59zm-5.69-36.9H50.1v31.22h7.91V5.95z"/></g></svg>